# Blender 3.4.0
# www.blender.org
o Netting_Col
v 2.226636 0.069749 -33.629932
v 3.376471 0.092428 -34.856083
v 1.952212 0.005300 -34.554161
v 3.650514 0.117918 -33.931900
v 2.380066 0.098889 -32.850315
v 4.799871 0.080144 -35.157997
v 3.803695 0.117405 -33.152275
v 2.498177 0.100008 -31.984035
v 3.921578 0.087724 -32.285954
v 5.073814 0.090053 -34.233776
v 6.223269 0.067463 -35.459911
v 5.226857 0.074103 -33.454159
v 5.344550 0.025733 -32.587872
v 6.497173 0.072922 -34.535694
v 7.645089 -0.128061 -35.761833
v 6.650212 0.056665 -33.756073
v 6.767951 0.013449 -32.889786
v 7.919288 -0.088344 -34.837612
v 9.067233 -0.286046 -36.063747
v 8.073130 -0.011851 -34.057991
v 8.191352 0.001165 -33.191704
v 9.342212 -0.146062 -35.139626
v 10.491891 -0.152629 -36.365662
v 9.495998 -0.077414 -34.359993
v 9.614667 -0.021190 -33.493618
v 10.766707 -0.042848 -35.441429
v 11.916016 -0.081049 -36.667580
v 10.920309 0.006161 -34.661812
v 11.037724 -0.073110 -33.795536
v 12.190479 0.003101 -35.743500
v 13.339420 -0.093046 -36.969494
v 12.343906 0.029494 -34.963860
v 12.461125 -0.085395 -34.097454
v 13.614316 0.012688 -36.045128
v 14.763590 -0.016119 -37.271412
v 13.767853 0.056162 -35.265533
v 13.885384 0.001434 -34.399368
v 15.037865 0.030944 -36.347179
v 16.185587 -0.191324 -37.573330
v 15.190802 0.002988 -35.567562
v 15.307824 -0.121948 -34.701283
v 16.459028 -0.235728 -36.649147
v 17.608711 -0.235636 -37.875244
v 16.611828 -0.280369 -35.869522
v 16.729786 -0.301205 -35.003201
v 17.881804 -0.313788 -36.951126
v 19.032423 -0.211885 -38.177162
v 18.033323 -0.507908 -36.171490
v 18.152346 -0.410952 -35.305119
v 19.305784 -0.268450 -37.252945
v 20.457800 0.004900 -38.479080
v 19.458872 -0.279193 -36.473324
v 19.576471 -0.339352 -35.607033
v 20.731852 0.015549 -37.554745
v 21.881872 0.070310 -38.780994
v 20.885170 0.033999 -36.775143
v 21.002136 -0.089184 -35.908951
v 22.154961 -0.022160 -37.856743
v 23.304949 0.020599 -39.082909
v 22.308500 0.019790 -37.077129
v 22.426197 -0.025043 -36.210869
v 23.578815 0.022137 -38.158695
v 24.728323 0.005160 -39.384827
v 23.731907 0.012120 -37.379074
v 23.849653 -0.030972 -36.512783
v 25.002176 -0.010299 -38.460461
v 26.151873 0.010089 -39.686745
v 25.161455 -0.010101 -37.683929
v 25.273148 -0.032252 -36.814701
v 26.425339 -0.031439 -38.762562
v 27.575809 0.060076 -39.988659
v 26.580528 -0.046577 -37.985031
v 26.699492 -0.073779 -37.121078
v 27.849203 0.005949 -39.064442
v 28.998455 -0.039553 -40.290577
v 28.002268 -0.006923 -38.284821
v 28.119951 -0.056835 -37.418530
v 29.272308 -0.029937 -39.366459
v 30.422407 0.011848 -40.592495
v 29.425726 -0.004121 -38.586823
v 29.543465 -0.055699 -37.720448
v 30.694761 -0.162086 -39.668278
v 31.845757 -0.006377 -40.894409
v 30.846909 -0.282251 -38.888657
v 30.964134 -0.384307 -38.022366
v 32.117065 -0.301628 -39.970196
v 33.012985 0.028118 -41.158672
v 32.268143 -0.544977 -39.190575
v 32.385136 -0.674943 -38.324284
v 33.317966 -0.184172 -40.206852
v 34.180103 0.049817 -41.422943
v 33.503277 -0.371703 -39.429516
v 33.652981 -0.456122 -38.592781
v 34.519756 0.035519 -40.443508
v 35.346806 0.023848 -41.687206
v 35.719635 0.035067 -40.680164
v 34.739880 -0.028561 -39.668457
v 34.922451 -0.047904 -38.861282
v 35.973850 0.010577 -39.907402
v 36.188801 -0.002509 -39.129780
vn 0.0370 -0.9990 0.0233
vn 0.0401 -0.9988 0.0295
vn 0.0189 -0.9995 0.0246
vn 0.0123 -0.9998 0.0154
vn 0.0072 -1.0000 -0.0024
vn -0.0106 -0.9998 0.0156
vn -0.0113 -0.9999 -0.0120
vn 0.0014 -0.9999 -0.0128
vn -0.0154 -0.9996 -0.0241
vn -0.0136 -0.9999 0.0023
vn -0.0519 -0.9981 0.0346
vn -0.0260 -0.9993 -0.0271
vn -0.0304 -0.9986 -0.0433
vn -0.0445 -0.9986 0.0291
vn -0.0640 -0.9939 0.0902
vn -0.0325 -0.9995 -0.0048
vn -0.0290 -0.9989 -0.0357
vn -0.0683 -0.9945 0.0792
vn 0.0238 -0.9934 0.1120
vn -0.0378 -0.9984 0.0431
vn -0.0393 -0.9992 0.0078
vn 0.0196 -0.9957 0.0907
vn 0.0768 -0.9927 0.0927
vn 0.0049 -0.9992 0.0392
vn -0.0106 -0.9997 0.0203
vn 0.0688 -0.9950 0.0725
vn 0.0430 -0.9949 0.0909
vn 0.0212 -0.9997 -0.0104
vn 0.0221 -0.9985 -0.0498
vn 0.0358 -0.9971 0.0664
vn 0.0243 -0.9963 0.0819
vn 0.0180 -0.9995 -0.0270
vn 0.0027 -0.9944 -0.1058
vn 0.0132 -0.9985 0.0531
vn -0.0639 -0.9968 0.0490
vn -0.0165 -0.9991 -0.0378
vn -0.0385 -0.9946 -0.0967
vn -0.0722 -0.9969 0.0303
vn -0.1119 -0.9937 -0.0067
vn -0.1074 -0.9939 -0.0264
vn -0.1163 -0.9901 -0.0785
vn -0.1352 -0.9901 -0.0377
vn -0.0223 -0.9978 -0.0630
vn -0.1393 -0.9901 -0.0189
vn -0.1620 -0.9867 -0.0141
vn -0.0100 -0.9951 -0.0984
vn 0.0910 -0.9934 -0.0695
vn -0.0175 -0.9984 -0.0539
vn -0.0193 -0.9992 0.0356
vn 0.1114 -0.9908 -0.0770
vn 0.0669 -0.9959 -0.0613
vn 0.1201 -0.9881 -0.0959
vn 0.1646 -0.9854 -0.0444
vn 0.0851 -0.9961 -0.0241
vn 0.0064 -0.9989 -0.0459
vn 0.0895 -0.9947 -0.0512
vn 0.0946 -0.9891 -0.1124
vn 0.0008 -1.0000 -0.0095
vn -0.0120 -0.9997 -0.0207
vn -0.0015 -0.9998 -0.0196
vn -0.0241 -0.9966 -0.0786
vn -0.0162 -0.9998 -0.0107
vn -0.0203 -0.9997 -0.0164
vn -0.0042 -0.9999 -0.0121
vn -0.0164 -0.9989 -0.0435
vn -0.0164 -0.9998 -0.0087
vn -0.0010 -0.9991 -0.0436
vn -0.0227 -0.9996 -0.0169
vn -0.0276 -0.9991 -0.0312
vn 0.0051 -0.9996 -0.0279
vn -0.0025 -0.9995 -0.0319
vn -0.0055 -0.9997 -0.0253
vn -0.0103 -0.9994 -0.0330
vn -0.0023 -0.9998 -0.0190
vn -0.0756 -0.9961 -0.0450
vn 0.0012 -0.9995 -0.0310
vn 0.0047 -0.9988 -0.0497
vn -0.0766 -0.9967 -0.0277
vn -0.1030 -0.9820 -0.1582
vn -0.1017 -0.9941 -0.0373
vn -0.1099 -0.9924 -0.0549
vn -0.1115 -0.9850 -0.1314
vn -0.0387 -0.9690 -0.2438
vn -0.1836 -0.9790 -0.0885
vn -0.2087 -0.9750 -0.0761
vn -0.0436 -0.9689 -0.2437
vn 0.0896 -0.9771 -0.1929
vn -0.0449 -0.9833 -0.1764
vn -0.0504 -0.9910 -0.1239
vn 0.0764 -0.9720 -0.2221
vn 0.0592 -0.9963 -0.0621
vn 0.1565 -0.9696 -0.1880
vn 0.1846 -0.9737 -0.1336
vn 0.0480 -0.9939 -0.0995
vn -0.0053 -1.0000 0.0046
vn -0.0052 -0.9996 -0.0284
vn 0.1130 -0.9877 -0.1078
vn 0.1394 -0.9874 -0.0744
vn 0.0091 -0.9990 -0.0433
vn 0.0263 -0.9993 -0.0280
vt 12.300997 0.253435
vt 11.741667 0.733703
vt 12.300998 0.733703
vt 11.741663 0.253436
vt 12.300997 -0.165786
vt 11.182335 0.733704
vt 11.741666 -0.165786
vt 12.300997 -0.529974
vt 11.741666 -0.529973
vt 11.182335 0.253437
vt 10.623001 0.733704
vt 11.182332 -0.165785
vt 11.182333 -0.529972
vt 10.622999 0.253437
vt 10.063666 0.733705
vt 10.622999 -0.165784
vt 10.622999 -0.529972
vt 10.063665 0.253437
vt 9.504336 0.733706
vt 10.063665 -0.165784
vt 10.063665 -0.529972
vt 9.504335 0.253438
vt 8.945004 0.733706
vt 9.504336 -0.165783
vt 9.504335 -0.529971
vt 8.945005 0.253439
vt 8.385674 0.733706
vt 8.945004 -0.165782
vt 8.945004 -0.529970
vt 8.385674 0.253439
vt 7.826341 0.733706
vt 8.385674 -0.165783
vt 8.385674 -0.529970
vt 7.826341 0.253438
vt 7.267008 0.733706
vt 7.826342 -0.165783
vt 7.826342 -0.529970
vt 7.267010 0.253439
vt 6.707675 0.733706
vt 7.267010 -0.165783
vt 7.267009 -0.529970
vt 6.707676 0.253438
vt 6.148345 0.733705
vt 6.707677 -0.165783
vt 6.707676 -0.529970
vt 6.148344 0.253438
vt 5.589014 0.733705
vt 6.148344 -0.165783
vt 6.148345 -0.529970
vt 5.589013 0.253438
vt 5.029681 0.733705
vt 5.589014 -0.165783
vt 5.589015 -0.529970
vt 5.029683 0.253438
vt 4.470349 0.733703
vt 5.029684 -0.165783
vt 5.029684 -0.529970
vt 4.470351 0.253437
vt 3.911019 0.733703
vt 4.470351 -0.165784
vt 4.470351 -0.529970
vt 3.911021 0.253436
vt 3.351687 0.733702
vt 3.911021 -0.165784
vt 3.911022 -0.529971
vt 3.351689 0.253435
vt 2.792354 0.733701
vt 3.351691 -0.165785
vt 3.351691 -0.529972
vt 2.792356 0.253434
vt 2.233024 0.733700
vt 2.792357 -0.165786
vt 2.792358 -0.529973
vt 2.233027 0.253434
vt 1.673693 0.733700
vt 2.233027 -0.165787
vt 2.233028 -0.529973
vt 1.673696 0.253433
vt 1.114361 0.733698
vt 1.673697 -0.165788
vt 1.673697 -0.529974
vt 1.114363 0.253432
vt 0.555029 0.733697
vt 1.114365 -0.165789
vt 1.114365 -0.529976
vt 0.555031 0.253430
vt 0.038106 0.740517
vt 0.555033 -0.165790
vt 0.555034 -0.529977
vt 0.040849 0.251477
vt -0.478817 0.747337
vt 0.037855 -0.167819
vt 0.039586 -0.527472
vt -0.473334 0.249524
vt -0.995740 0.754157
vt -0.987516 0.247571
vt -0.479322 -0.169847
vt -0.475861 -0.524967
vt -0.996500 -0.171876
vt -0.991309 -0.522461
s 1
f 1/1/1 3/3/2 2/2/3
f 1/1/1 2/2/3 4/4/4
f 5/5/5 1/1/1 4/4/4
f 4/4/4 2/2/3 6/6/6
f 5/5/5 4/4/4 7/7/7
f 8/8/8 5/5/5 7/7/7
f 8/8/8 7/7/7 9/9/9
f 4/4/4 6/6/6 10/10/10
f 7/7/7 4/4/4 10/10/10
f 10/10/10 6/6/6 11/11/11
f 9/9/9 7/7/7 12/12/12
f 7/7/7 10/10/10 12/12/12
f 9/9/9 12/12/12 13/13/13
f 10/10/10 11/11/11 14/14/14
f 12/12/12 10/10/10 14/14/14
f 14/14/14 11/11/11 15/15/15
f 13/13/13 12/12/12 16/16/16
f 12/12/12 14/14/14 16/16/16
f 13/13/13 16/16/16 17/17/17
f 14/14/14 15/15/15 18/18/18
f 16/16/16 14/14/14 18/18/18
f 18/18/18 15/15/15 19/19/19
f 17/17/17 16/16/16 20/20/20
f 16/16/16 18/18/18 20/20/20
f 17/17/17 20/20/20 21/21/21
f 18/18/18 19/19/19 22/22/22
f 20/20/20 18/18/18 22/22/22
f 22/22/22 19/19/19 23/23/23
f 21/21/21 20/20/20 24/24/24
f 20/20/20 22/22/22 24/24/24
f 21/21/21 24/24/24 25/25/25
f 22/22/22 23/23/23 26/26/26
f 24/24/24 22/22/22 26/26/26
f 26/26/26 23/23/23 27/27/27
f 25/25/25 24/24/24 28/28/28
f 24/24/24 26/26/26 28/28/28
f 25/25/25 28/28/28 29/29/29
f 26/26/26 27/27/27 30/30/30
f 28/28/28 26/26/26 30/30/30
f 30/30/30 27/27/27 31/31/31
f 29/29/29 28/28/28 32/32/32
f 28/28/28 30/30/30 32/32/32
f 29/29/29 32/32/32 33/33/33
f 30/30/30 31/31/31 34/34/34
f 32/32/32 30/30/30 34/34/34
f 34/34/34 31/31/31 35/35/35
f 33/33/33 32/32/32 36/36/36
f 32/32/32 34/34/34 36/36/36
f 33/33/33 36/36/36 37/37/37
f 34/34/34 35/35/35 38/38/38
f 36/36/36 34/34/34 38/38/38
f 38/38/38 35/35/35 39/39/39
f 37/37/37 36/36/36 40/40/40
f 36/36/36 38/38/38 40/40/40
f 37/37/37 40/40/40 41/41/41
f 38/38/38 39/39/39 42/42/42
f 40/40/40 38/38/38 42/42/42
f 42/42/42 39/39/39 43/43/43
f 41/41/41 40/40/40 44/44/44
f 40/40/40 42/42/42 44/44/44
f 41/41/41 44/44/44 45/45/45
f 42/42/42 43/43/43 46/46/46
f 44/44/44 42/42/42 46/46/46
f 46/46/46 43/43/43 47/47/47
f 45/45/45 44/44/44 48/48/48
f 44/44/44 46/46/46 48/48/48
f 45/45/45 48/48/48 49/49/49
f 46/46/46 47/47/47 50/50/50
f 48/48/48 46/46/46 50/50/50
f 50/50/50 47/47/47 51/51/51
f 49/49/49 48/48/48 52/52/52
f 48/48/48 50/50/50 52/52/52
f 49/49/49 52/52/52 53/53/53
f 50/50/50 51/51/51 54/54/54
f 52/52/52 50/50/50 54/54/54
f 54/54/54 51/51/51 55/55/55
f 53/53/53 52/52/52 56/56/56
f 52/52/52 54/54/54 56/56/56
f 53/53/53 56/56/56 57/57/57
f 54/54/54 55/55/55 58/58/58
f 56/56/56 54/54/54 58/58/58
f 58/58/58 55/55/55 59/59/59
f 57/57/57 56/56/56 60/60/60
f 56/56/56 58/58/58 60/60/60
f 57/57/57 60/60/60 61/61/61
f 58/58/58 59/59/59 62/62/62
f 60/60/60 58/58/58 62/62/62
f 62/62/62 59/59/59 63/63/63
f 61/61/61 60/60/60 64/64/64
f 60/60/60 62/62/62 64/64/64
f 61/61/61 64/64/64 65/65/65
f 62/62/62 63/63/63 66/66/66
f 64/64/64 62/62/62 66/66/66
f 66/66/66 63/63/63 67/67/67
f 65/65/65 64/64/64 68/68/68
f 64/64/64 66/66/66 68/68/68
f 65/65/65 68/68/68 69/69/69
f 66/66/66 67/67/67 70/70/70
f 68/68/68 66/66/66 70/70/70
f 70/70/70 67/67/67 71/71/71
f 69/69/69 68/68/68 72/72/72
f 68/68/68 70/70/70 72/72/72
f 69/69/69 72/72/72 73/73/73
f 70/70/70 71/71/71 74/74/74
f 72/72/72 70/70/70 74/74/74
f 74/74/74 71/71/71 75/75/75
f 73/73/73 72/72/72 76/76/76
f 72/72/72 74/74/74 76/76/76
f 73/73/73 76/76/76 77/77/77
f 74/74/74 75/75/75 78/78/78
f 76/76/76 74/74/74 78/78/78
f 78/78/78 75/75/75 79/79/79
f 77/77/77 76/76/76 80/80/80
f 76/76/76 78/78/78 80/80/80
f 77/77/77 80/80/80 81/81/81
f 78/78/78 79/79/79 82/82/82
f 80/80/80 78/78/78 82/82/82
f 82/82/82 79/79/79 83/83/83
f 81/81/81 80/80/80 84/84/84
f 80/80/80 82/82/82 84/84/84
f 81/81/81 84/84/84 85/85/85
f 82/82/82 83/83/83 86/86/86
f 84/84/84 82/82/82 86/86/86
f 86/86/86 83/83/83 87/87/87
f 85/85/85 84/84/84 88/88/88
f 84/84/84 86/86/86 88/88/88
f 85/85/85 88/88/88 89/89/89
f 86/86/86 87/87/87 90/90/90
f 88/88/88 86/86/86 90/90/90
f 90/90/90 87/87/87 91/91/91
f 89/89/89 88/88/88 92/92/92
f 88/88/88 90/90/90 92/92/92
f 89/89/89 92/92/92 93/93/93
f 90/90/90 91/91/91 94/94/94
f 92/92/92 90/90/90 94/94/94
f 94/94/94 91/91/91 95/95/95
f 94/94/94 95/95/95 96/96/96
f 93/93/93 92/92/92 97/97/97
f 92/92/92 94/94/94 97/97/97
f 97/97/97 94/94/94 96/96/96
f 93/93/93 97/97/97 98/98/98
f 97/97/97 96/96/96 99/99/99
f 98/98/98 97/97/97 99/99/99
f 98/98/98 99/99/99 100/100/100
